<svg width="150" height="150" viewBox="0 0 150 150" fill="none" xmlns="http://www.w3.org/2000/svg">
<g filter="url(#filter0_d_15_281)">
<path d="M75 18.75C106.062 18.75 131.25 41.125 131.25 68.75C131.25 96.375 93.75 131.25 75 131.25C56.25 131.25 18.75 96.375 18.75 68.75C18.75 41.125 43.9375 18.75 75 18.75ZM64.4375 68.3125C58.0625 58.0625 46.6875 53.625 39.0625 58.375C31.4375 63.125 30.4375 75.3125 36.8125 85.5625C43.25 95.8125 54.625 100.25 62.25 95.5C69.875 90.625 70.8125 78.5625 64.4375 68.3125ZM85.5625 68.3125C79.1875 78.5625 80.125 90.625 87.75 95.5C95.375 100.25 106.75 95.8125 113.188 85.5625C119.563 75.3125 118.563 63.125 110.938 58.375C103.312 53.625 91.9375 58.0625 85.5625 68.3125ZM75 110.938C62.5 110.938 59.375 106.25 59.375 106.25C59.375 106.437 62.5 118.75 75 118.75C87.5 118.75 90.625 106.25 90.625 106.25C90.625 106.25 87.5 110.938 75 110.938Z" fill="#FFD717"/>
<path d="M36.3879 85.8266L36.3891 85.8284C39.6591 91.0351 44.1931 94.7824 48.9041 96.622C53.615 98.4616 58.5371 98.402 62.5144 95.9244L62.5193 95.9213C66.4925 93.381 68.6921 88.9863 69.0922 83.9616C69.4922 78.9377 68.0999 73.2543 64.8621 68.0484C61.6232 62.8408 57.1044 59.0929 52.4009 57.2531C47.6975 55.4133 42.7753 55.473 38.7981 57.9506C34.8202 60.4286 32.6051 64.8263 32.1892 69.8651C31.7733 74.904 33.1493 80.6193 36.3879 85.8266ZM87.4807 95.9213L87.4856 95.9244C91.4629 98.402 96.385 98.4616 101.096 96.622C105.807 94.7824 110.341 91.0351 113.611 85.8284L113.612 85.8266C116.851 80.6193 118.227 74.904 117.811 69.8651C117.395 64.8263 115.18 60.4286 111.202 57.9506C107.225 55.473 102.303 55.4133 97.5991 57.2531C92.8956 59.0929 88.3768 62.8408 85.1379 68.0484C81.9001 73.2543 80.5078 78.9377 80.9078 83.9616C81.3079 88.9863 83.5075 93.381 87.4807 95.9213ZM59.791 105.973L59.7906 105.972L59.7902 105.971L59.7896 105.971L59.7893 105.97L58.875 104.599V106.25C58.875 106.301 58.8837 106.348 58.8849 106.354L58.885 106.355C58.8881 106.372 58.8919 106.391 58.8959 106.409C58.9039 106.446 58.915 106.492 58.929 106.546C58.9572 106.655 58.9991 106.805 59.0561 106.989C59.1702 107.357 59.3462 107.868 59.5965 108.473C60.0968 109.683 60.8976 111.279 62.1011 112.872C64.5148 116.066 68.5566 119.25 75 119.25C81.4464 119.25 85.488 116.016 87.9 112.8C89.1029 111.196 89.9032 109.595 90.4029 108.395C90.6531 107.795 90.8287 107.294 90.9423 106.94C90.9991 106.763 91.0405 106.623 91.0679 106.527C91.0816 106.478 91.0919 106.441 91.0988 106.414L91.1068 106.384L91.109 106.375L91.1097 106.373L91.1099 106.372C91.11 106.372 91.1101 106.371 90.625 106.25L91.1101 106.371L90.2122 105.974C90.2094 105.972 90.2094 105.972 90.2094 105.972L90.209 105.973L90.2079 105.974C90.2045 105.979 90.1979 105.988 90.1879 106.001C90.168 106.028 90.1348 106.07 90.0867 106.126C89.9905 106.238 89.8346 106.406 89.6069 106.611C89.1519 107.02 88.408 107.581 87.2764 108.147C85.0142 109.278 81.1872 110.438 75 110.438C68.8128 110.438 64.9858 109.278 62.7236 108.147C61.592 107.581 60.8481 107.02 60.3931 106.611C60.1654 106.406 60.0095 106.238 59.9133 106.126C59.8652 106.07 59.832 106.028 59.8121 106.001C59.8077 105.995 59.8039 105.99 59.8008 105.986C59.7969 105.981 59.794 105.977 59.7921 105.974L59.791 105.973ZM75 19.25C105.843 19.25 130.75 41.455 130.75 68.75C130.75 82.3671 121.485 97.8719 109.796 110.013C103.963 116.072 97.551 121.265 91.4415 124.941C85.3185 128.624 79.5532 130.75 75 130.75C70.4468 130.75 64.6815 128.624 58.5585 124.941C52.449 121.265 46.0374 116.072 40.2039 110.013C28.5152 97.8719 19.25 82.3671 19.25 68.75C19.25 41.455 44.1566 19.25 75 19.25Z" stroke="black"/>
</g>
<defs>
<filter id="filter0_d_15_281" x="14.75" y="18.75" width="120.5" height="120.5" filterUnits="userSpaceOnUse" color-interpolation-filters="sRGB">
<feFlood flood-opacity="0" result="BackgroundImageFix"/>
<feColorMatrix in="SourceAlpha" type="matrix" values="0 0 0 0 0 0 0 0 0 0 0 0 0 0 0 0 0 0 127 0" result="hardAlpha"/>
<feOffset dy="4"/>
<feGaussianBlur stdDeviation="2"/>
<feComposite in2="hardAlpha" operator="out"/>
<feColorMatrix type="matrix" values="0 0 0 0 0 0 0 0 0 0 0 0 0 0 0 0 0 0 0.25 0"/>
<feBlend mode="normal" in2="BackgroundImageFix" result="effect1_dropShadow_15_281"/>
<feBlend mode="normal" in="SourceGraphic" in2="effect1_dropShadow_15_281" result="shape"/>
</filter>
</defs>
</svg>
